PathFileType	4	(X/Y/Z)	./resultDataOpenSim/trcMotMarkerGrf/sub06/qtm-02-07.trc
DataRate	CameraRate	NumFrames	NumMarkers	Units	OrigDataRate	OrigDataStartFrame	OrigNumFrames
250.000000	250.000000	9	24	m	250.000000	62	494
Frame#	Time	L.Toe.Tip			R.Toe.Tip			L.Ankle.Lat			R.Ankle.Lat			L.Ankle.Med			R.Ankle.Med			L.Heel			R.Heel			L.Knee.Lat			R.Knee.Lat			L.Knee.Med			R.Knee.Med			L.Thigh.Upper			R.Thigh.Upper			L.ASIS			R.ASIS			V.Sacral			L.Acromium			R.Acromium			C7			L.Elbow			R.Elbow			L.Wrist.Lat			R.Wrist.Lat
		X1	Y1	Z1	X2	Y2	Z2	X3	Y3	Z3	X4	Y4	Z4	X5	Y5	Z5	X6	Y6	Z6	X7	Y7	Z7	X8	Y8	Z8	X9	Y9	Z9	X10	Y10	Z10	X11	Y11	Z11	X12	Y12	Z12	X13	Y13	Z13	X14	Y14	Z14	X15	Y15	Z15	X16	Y16	Z16	X17	Y17	Z17	X18	Y18	Z18	X19	Y19	Z19	X20	Y20	Z20	X21	Y21	Z21	X22	Y22	Z22	X23	Y23	Z23	X24	Y24	Z24

62	0.244	-1.2943687	0.084276918	-0.057337238	-0.77260039	0.036095771	0.11721023	-1.2931997	0.21411081	-0.091984413	-0.90630987	0.06201313	0.13808725	-1.2754108	0.22077551	-0.011081774	-0.88848909	0.079932481	0.051702079	-1.3405698	0.27164462	-0.047261985	-0.96256695	0.038325125	0.076409972	-0.95639177	0.38495145	-0.11775047	-0.83644055	0.44267434	0.16396288	-0.95217309	0.37250054	0.0023672232	-0.87114865	0.43055831	0.040390636	-0.98538091	0.77947533	-0.12144608	-0.95882643	0.79936566	0.22078361	-0.90592007	0.82791237	-0.084433979	-0.87354608	0.84476172	0.15843936	-1.0754127	0.92065671	0.050635471	-0.94364979	1.3251322	-0.12944976	-0.94182984	1.3018373	0.23286103	-1.0170679	1.3548317	0.052821458	-0.97947762	1.0041929	-0.18671131	-1.0456984	1.0017788	0.28777151	-0.80760145	0.82697139	-0.18248048	-0.92931866	0.79178308	0.32438555
63	0.248	-1.2780095	0.084296463	-0.056962228	-0.77269896	0.036116296	0.11732362	-1.2791261	0.21399673	-0.091301327	-0.90650418	0.062017759	0.13819085	-1.2613067	0.2209892	-0.010446435	-0.88853146	0.080064897	0.051820714	-1.3272989	0.27087858	-0.046435167	-0.96260419	0.038418832	0.076437235	-0.94375108	0.3871328	-0.11735797	-0.83534307	0.44268328	0.16448841	-0.9400766	0.37494979	0.0032761918	-0.86953287	0.43099114	0.040655014	-0.97902826	0.78152744	-0.12122901	-0.95282997	0.80053662	0.22152851	-0.89954226	0.82999909	-0.084089346	-0.8678561	0.8461219	0.15927923	-1.0692618	0.92236361	0.050948786	-0.93792331	1.3270693	-0.12923085	-0.93570156	1.3039645	0.23298206	-1.0110599	1.3566093	0.053028244	-0.97471863	1.006444	-0.18608948	-1.0382325	1.003475	0.28865897	-0.80458439	0.82766145	-0.18289094	-0.91953261	0.79449082	0.32482372
64	0.252	-1.2614101	0.084152683	-0.056744877	-0.77277898	0.036140512	0.11741199	-1.2648965	0.21370794	-0.090610194	-0.90665799	0.062031559	0.13827426	-1.2470151	0.22097073	-0.0098201174	-0.88856615	0.080217654	0.051935696	-1.3139606	0.26986113	-0.045576941	-0.96264019	0.038513711	0.076457016	-0.93120975	0.38943368	-0.11695491	-0.83421706	0.44266949	0.1648925	-0.92805003	0.377531	0.0042010042	-0.86794533	0.4313901	0.040867475	-0.97265413	0.78361758	-0.12103438	-0.94674004	0.80165647	0.22225716	-0.8931034	0.83208984	-0.083737819	-0.86308395	0.84746615	0.15995044	-1.0632642	0.92385527	0.051965675	-0.93217545	1.3289978	-0.12900817	-0.9295662	1.3060917	0.23308632	-1.0050472	1.3583735	0.053247294	-0.96999169	1.0087238	-0.18550956	-1.0306562	1.0051727	0.28953898	-0.80160022	0.82840236	-0.18333078	-0.90972599	0.79723781	0.32522819
65	0.256	-1.2445812	0.083856475	-0.056650631	-0.77284649	0.03616567	0.11747922	-1.2505702	0.21323932	-0.089890983	-0.90677424	0.062054888	0.1383386	-1.2326346	0.22071716	-0.0091629074	-0.88860231	0.08038855	0.05204893	-1.3005788	0.26859212	-0.044671831	-0.96268004	0.038602491	0.0764763	-0.91875418	0.39184741	-0.11654868	-0.83318115	0.4426363	0.16516993	-0.91585446	0.38019632	0.0050353484	-0.86642904	0.43174449	0.041059398	-0.96626697	0.78572723	-0.12085129	-0.9406854	0.8027524	0.22286593	-0.88675686	0.83415194	-0.083422076	-0.85867353	0.84883133	0.16052596	-1.0574113	0.9251494	0.05360326	-0.92640508	1.3309201	-0.12878592	-0.92341644	1.3082223	0.23317482	-0.99902684	1.360116	0.053477058	-0.96529397	1.0110214	-0.18497077	-1.0229914	1.0068611	0.29042071	-0.79863544	0.82919104	-0.18379049	-0.89989482	0.80002327	0.32560057
66	0.26	-1.2275901	0.083409864	-0.056572146	-0.77290934	0.036189976	0.11753049	-1.236166	0.21259169	-0.089151075	-0.90685755	0.062087222	0.13839163	-1.2182003	0.22023665	-0.0084676412	-0.88864984	0.080565604	0.052154245	-1.2872036	0.26707919	-0.043653253	-0.96272995	0.038672229	0.076507378	-0.90635312	0.39437368	-0.11613988	-0.83227115	0.44259723	0.16534051	-0.90335681	0.38289802	0.0057374938	-0.86507801	0.43205347	0.041248849	-0.95987611	0.78784336	-0.12070718	-0.93473272	0.80383817	0.22331771	-0.88053521	0.83617596	-0.0831394	-0.8538228	0.85025795	0.16115344	-1.0515803	0.9263796	0.055245779	-0.92060747	1.3328313	-0.12856654	-0.91720613	1.310345	0.23324088	-0.99299622	1.3618314	0.053718537	-0.96062708	1.0133235	-0.1844717	-1.0152656	1.0085295	0.29127846	-0.79567308	0.83002221	-0.18426155	-0.89004432	0.80285166	0.32594228
67	0.264	-1.2104906	0.082813171	-0.056403785	-0.77297123	0.036213613	0.11757146	-1.2216814	0.21177272	-0.088402522	-0.90691218	0.062126126	0.1384406	-1.2036723	0.219549	-0.0077710114	-0.88871449	0.080736961	0.052241262	-1.2738404	0.26529159	-0.042517238	-0.96279568	0.03870913	0.076560089	-0.89400574	0.3970015	-0.11572811	-0.83137411	0.44258102	0.16546798	-0.89062197	0.38563723	0.0063410377	-0.86400316	0.43231947	0.04144002	-0.95346834	0.78994872	-0.12065626	-0.92888769	0.80491794	0.22363296	-0.8743838	0.83816791	-0.082856753	-0.84823432	0.85176022	0.16190423	-1.0456255	0.9277311	0.056182381	-0.9147795	1.3347197	-0.12834913	-0.9108702	1.3124343	0.23327632	-0.98695779	1.3635231	0.053972538	-0.95599444	1.0156201	-0.18401029	-1.0075585	1.0101711	0.29205548	-0.79270203	0.83088702	-0.18474122	-0.88020334	0.80573105	0.32625962
68	0.268	-1.1932143	0.082084633	-0.056181263	-0.77303183	0.036236141	0.11760649	-1.2071077	0.21078398	-0.087649999	-0.90694645	0.062161768	0.13848131	-1.1889927	0.21866366	-0.0071003194	-0.88879649	0.080897173	0.05230187	-1.2603821	0.26315013	-0.041394144	-0.96287659	0.03871576	0.07662992	-0.88172904	0.39970747	-0.11530886	-0.83035393	0.44261457	0.16561637	-0.87781914	0.38844142	0.0068963535	-0.86319208	0.43254283	0.041631747	-0.94699243	0.79201683	-0.12073971	-0.92313159	0.80599286	0.22385395	-0.8682507	0.84013348	-0.082538308	-0.84214511	0.85332174	0.16273597	-1.039494	0.92933199	0.056120431	-0.90892727	1.3365739	-0.12813059	-0.9044065	1.3144755	0.23328595	-0.98091984	1.3651956	0.05423305	-0.95140126	1.0179043	-0.18358929	-1.0000207	1.0117867	0.29269306	-0.78972085	0.83177537	-0.18522918	-0.87040466	0.80865575	0.32655852
69	0.272	-1.1756124	0.081261885	-0.056055158	-0.77309118	0.036255807	0.11763811	-1.1924364	0.20961632	-0.086885823	-0.90697848	0.0621729	0.13849713	-1.1741823	0.21757797	-0.0064219616	-0.88889006	0.081045225	0.052339692	-1.2467283	0.26060849	-0.040386563	-0.96296387	0.038719612	0.076696045	-0.86953454	0.40247212	-0.11487826	-0.8291934	0.44269393	0.16579803	-0.86511061	0.39131934	0.0074234656	-0.86250878	0.43271867	0.041809337	-0.94039505	0.79402809	-0.12093166	-0.91744354	0.80706451	0.22402301	-0.86211488	0.84207465	-0.082174195	-0.83598796	0.85490444	0.16354399	-1.0332432	0.93117431	0.055269398	-0.90306171	1.338385	-0.12790831	-0.89792029	1.3164803	0.23328714	-0.97489099	1.3668415	0.054489367	-0.94685262	1.0201684	-0.18321955	-0.99273997	1.0133828	0.29319649	-0.78673261	0.83267929	-0.18572278	-0.86064408	0.81159905	0.32683377
70	0.276	-1.1576174	0.080378543	-0.056113869	-0.77315004	0.036272099	0.11766851	-1.1776615	0.20826348	-0.086103873	-0.90702996	0.062145194	0.13847832	-1.1593563	0.21629596	-0.0056738404	-0.88898183	0.08118174	0.052373914	-1.2329495	0.25772516	-0.039388365	-0.96305138	0.038750238	0.076742932	-0.85742119	0.40528337	-0.11444052	-0.82796983	0.4427855	0.16599174	-0.85262654	0.39425098	0.0079124031	-0.86186223	0.4328373	0.041940574	-0.93368434	0.79598944	-0.12111786	-0.9118013	0.80813544	0.22417708	-0.85597278	0.84399832	-0.081794711	-0.83013591	0.85646816	0.16423477	-1.0269862	0.93308812	0.054186813	-0.8971864	1.3401475	-0.12768146	-0.89153148	1.3184656	0.23329227	-0.96887415	1.3684399	0.054735201	-0.94234677	1.0224017	-0.18290972	-0.98561003	1.014974	0.29368675	-0.78373697	0.83359504	-0.18621674	-0.85088349	0.81453757	0.32707677
